<?xml version="1.0" encoding="UTF-8" standalone="no"?>
<!-- Created with Inkscape (http://www.inkscape.org/) -->

<svg
   version="1.1"
   width="3.75in"
   height="5.625in"
   id="svg2"
   xmlns="http://www.w3.org/2000/svg"
   xmlns:svg="http://www.w3.org/2000/svg"
   xmlns:rdf="http://www.w3.org/1999/02/22-rdf-syntax-ns#"
   xmlns:cc="http://creativecommons.org/ns#"
   xmlns:dc="http://purl.org/dc/elements/1.1/">
  <metadata
     id="metadata14752">
    <rdf:RDF>
      <cc:Work
         rdf:about="">
        <dc:format>image/svg+xml</dc:format>
        <dc:type
           rdf:resource="http://purl.org/dc/dcmitype/StillImage" />
      </cc:Work>
    </rdf:RDF>
  </metadata>
  <defs
     id="defs14750" />
  <g
     transform="translate(0,-512.36218)"
     id="g3197">
    <rect
       rx="29.944447"
       ry="29.944447"
       y="512.86218"
       x="0.5"
       height="539"
       width="359"
       id="rect6472-38"
       style="fill:#ffffff;stroke:#000000;stroke-width:1" />
    <path
       id="path3204-24-49"
       d="m 180,737.36218 c 0,0 6,15 13,25 7,10 17,20 17,20 0,0 -10,10 -17,20 -7,10 -13,25 -13,25 0,0 -6,-15 -13,-25 -7,-10 -17,-20 -17,-20 0,0 10,-10 17,-20 7,-10 13,-25 13,-25"
       style="fill:#ff5555;stroke:none" />
    <path
       id="path3497-2"
       d="m 27.5,542.36218 -9,50 h 5 l 2.34375,-13 h 8.3125 l 2.34375,13 h 5 l -9,-50 z m 2.5,13.90625 3.25,18.09375 h -6.5 z"
       style="fill:#ff5555;stroke:none" />
    <path
       id="path3497-5-6"
       d="m 327.5,1022.3622 -9,-50.00004 h 5 l 2.34375,13 h 8.3125 l 2.34375,-13 h 5 l -9,50.00004 z m 2.5,-13.9063 3.25,-18.09372 h -6.5 z"
       style="fill:#ff5555;stroke:none" />
    <path
       id="path3204-24-1-57"
       d="m 30,602.36218 c 0,0 3,7.5 6.5,12.5 3.5,5 8.5,10 8.5,10 0,0 -5,5 -8.5,10 -3.5,5 -6.5,12.5 -6.5,12.5 0,0 -3,-7.5 -6.5,-12.5 -3.5,-5 -8.5,-10 -8.5,-10 0,0 5,-5 8.5,-10 3.5,-5 6.5,-12.5 6.5,-12.5"
       style="fill:#ff5555;stroke:none" />
    <path
       id="path3204-24-1-7"
       d="m 330,917.36218 c 0,0 3,7.5 6.5,12.5 3.5,5 8.5,10 8.5,10 0,0 -5,5 -8.5,10 -3.5,5 -6.5,12.5 -6.5,12.5 0,0 -3,-7.5 -6.5,-12.5 -3.5,-5 -8.5,-10 -8.5,-10 0,0 5,-5 8.5,-10 3.5,-5 6.5,-12.5 6.5,-12.5"
       style="fill:#ff5555;stroke:none" />
  </g>
</svg>
