<?xml version="1.0" encoding="UTF-8" standalone="no"?>
<!-- Created with Inkscape (http://www.inkscape.org/) -->

<svg
   version="1.1"
   width="360"
   height="540"
   id="svg2"
   xmlns:xlink="http://www.w3.org/1999/xlink"
   xmlns="http://www.w3.org/2000/svg"
   xmlns:svg="http://www.w3.org/2000/svg"
   xmlns:rdf="http://www.w3.org/1999/02/22-rdf-syntax-ns#"
   xmlns:cc="http://creativecommons.org/ns#"
   xmlns:dc="http://purl.org/dc/elements/1.1/">
  <metadata
     id="metadata14752">
    <rdf:RDF>
      <cc:Work
         rdf:about="">
        <dc:format>image/svg+xml</dc:format>
        <dc:type
           rdf:resource="http://purl.org/dc/dcmitype/StillImage" />
      </cc:Work>
    </rdf:RDF>
  </metadata>
  <defs
     id="defs14750">
    <pattern
       xlink:href="#invert grid"
       preserveAspectRatio="xMidYMid"
       id="pattern77"
       patternTransform="matrix(1.6263456,1.6263456,-1.6263456,1.6263456,-29.999998,1079.5)"
       x="0"
       y="0" />
    <pattern
       patternUnits="userSpaceOnUse"
       width="12"
       height="12"
       preserveAspectRatio="xMidYMid"
       id="invert grid"
       x="0"
       y="0"
       style="fill:#3a2c8e">
      <rect
         style="stroke:none;paint-order:markers fill stroke"
         id="rect2-0"
         width="10"
         height="10"
         x="0"
         y="0" />
    </pattern>
    <pattern
       xlink:href="#pattern20-1"
       preserveAspectRatio="xMidYMid"
       id="pattern75"
       patternTransform="translate(310,1219.5)"
       x="0"
       y="0" />
    <pattern
       patternUnits="userSpaceOnUse"
       width="40"
       height="40"
       patternTransform="translate(340,140)"
       preserveAspectRatio="xMidYMid"
       style="fill:#ffffff"
       id="pattern20-1">
      <path
         id="path18-2"
         style="opacity:1;stroke-width:4.8561;stroke-linecap:square;paint-order:stroke markers fill;stop-color:#000000"
         d="M 10,0 C 4.47715,0 0,4.47715 0,10 V 20 H 10 C 15.52285,20 20,15.52285 20,10 20,4.47715 15.52285,0 10,0 Z M 30,20 C 24.47715,20 20,15.52285 20,10 V 0 h 10 c 5.52285,0 10,4.47715 10,10 0,5.52285 -4.47715,10 -10,10 z m -20,0 c 5.52285,0 10,4.47715 10,10 V 40 H 10 C 4.47715,40 0,35.52285 0,30 0,24.47715 4.47715,20 10,20 Z m 20,20 c 5.52285,0 10,-4.47715 10,-10 V 20 H 30 c -5.52285,0 -10,4.47715 -10,10 0,5.52285 4.47715,10 10,10 z" />
    </pattern>
  </defs>
  <rect
     rx="29.944447"
     ry="29.944447"
     y="0.5"
     x="0.5"
     height="539"
     width="359"
     id="rect1"
     style="fill:#ffffff;stroke:#000000;stroke-width:1" />
  <rect
     style="fill:#ffffff;fill-opacity:1;stroke:#3a2c8e;stroke-width:5;stroke-dasharray:none"
     id="rect5"
     width="305"
     height="480.00003"
     x="27.5"
     y="30"
     rx="6"
     ry="6" />
  <rect
     style="fill:#ffffff;fill-opacity:1;stroke:url(#pattern75);stroke-width:4;stroke-dasharray:none;stroke-opacity:1"
     id="rect75"
     width="268.72763"
     height="445.38171"
     x="45.636185"
     y="47.309082"
     rx="6"
     ry="6" />
  <rect
     style="fill:url(#pattern77);fill-opacity:1;stroke:#3a2c8e;stroke-width:4;stroke-dasharray:none;stroke-opacity:1"
     id="rect6"
     width="268.72763"
     height="445.38171"
     x="45.636185"
     y="47.309082"
     rx="6"
     ry="6" />
</svg>
