<?xml version="1.0" encoding="UTF-8" standalone="no"?>
<!-- Created with Inkscape (http://www.inkscape.org/) -->

<svg
   version="1.1"
   width="360"
   height="540"
   id="svg2"
   xmlns:xlink="http://www.w3.org/1999/xlink"
   xmlns="http://www.w3.org/2000/svg"
   xmlns:svg="http://www.w3.org/2000/svg"
   xmlns:rdf="http://www.w3.org/1999/02/22-rdf-syntax-ns#"
   xmlns:cc="http://creativecommons.org/ns#"
   xmlns:dc="http://purl.org/dc/elements/1.1/">
  <metadata
     id="metadata14752">
    <rdf:RDF>
      <cc:Work
         rdf:about="">
        <dc:format>image/svg+xml</dc:format>
        <dc:type
           rdf:resource="http://purl.org/dc/dcmitype/StillImage" />
      </cc:Work>
    </rdf:RDF>
  </metadata>
  <defs
     id="defs14750">
    <pattern
       xlink:href="#invert grid"
       preserveAspectRatio="xMidYMid"
       id="pattern77"
       patternTransform="matrix(1.6263456,1.6263456,-1.6263456,1.6263456,-29.999998,1079.5)"
       x="0"
       y="0" />
    <pattern
       patternUnits="userSpaceOnUse"
       width="12"
       height="12"
       preserveAspectRatio="xMidYMid"
       id="invert grid"
       x="0"
       y="0"
       style="fill:#3a2c8e">
      <rect
         style="stroke:none;paint-order:markers fill stroke"
         id="rect2-0"
         width="10"
         height="10"
         x="0"
         y="0" />
    </pattern>
    <pattern
       xlink:href="#pattern20-1"
       preserveAspectRatio="xMidYMid"
       id="pattern75"
       patternTransform="translate(310,1219.5)"
       x="0"
       y="0" />
    <pattern
       patternUnits="userSpaceOnUse"
       width="40"
       height="40"
       patternTransform="translate(340,140)"
       preserveAspectRatio="xMidYMid"
       style="fill:#ffffff"
       id="pattern20-1">
      <path
         id="path18-2"
         style="opacity:1;stroke-width:4.8561;stroke-linecap:square;paint-order:stroke markers fill;stop-color:#000000"
         d="M 10,0 C 4.47715,0 0,4.47715 0,10 V 20 H 10 C 15.52285,20 20,15.52285 20,10 20,4.47715 15.52285,0 10,0 Z M 30,20 C 24.47715,20 20,15.52285 20,10 V 0 h 10 c 5.52285,0 10,4.47715 10,10 0,5.52285 -4.47715,10 -10,10 z m -20,0 c 5.52285,0 10,4.47715 10,10 V 40 H 10 C 4.47715,40 0,35.52285 0,30 0,24.47715 4.47715,20 10,20 Z m 20,20 c 5.52285,0 10,-4.47715 10,-10 V 20 H 30 c -5.52285,0 -10,4.47715 -10,10 0,5.52285 4.47715,10 10,10 z" />
    </pattern>
  </defs>
  <rect
     rx="29.944447"
     ry="29.944447"
     y="0.5"
     x="0.5"
     height="539"
     width="359"
     id="rect1"
     style="fill:#ffffff;stroke:#000000;stroke-width:1" />
  <rect
     style="fill:#ffffff;fill-opacity:1;stroke:#3a2c8e;stroke-width:5;stroke-dasharray:none"
     id="rect5"
     width="305"
     height="480.00003"
     x="27.5"
     y="30"
     rx="6"
     ry="6" />
  <rect
     style="fill:#ffffff;fill-opacity:1;stroke:url(#pattern75);stroke-width:4;stroke-dasharray:none;stroke-opacity:1"
     id="rect75"
     width="268.72763"
     height="445.38171"
     x="45.636185"
     y="47.309082"
     rx="6"
     ry="6" />
  <rect
     style="fill:url(#pattern77);fill-opacity:1;stroke:#3a2c8e;stroke-width:4;stroke-dasharray:none;stroke-opacity:1"
     id="rect6"
     width="268.72763"
     height="445.38171"
     x="45.636185"
     y="47.309082"
     rx="6"
     ry="6" />
  <path
     style="fill:#ffffff;fill-opacity:1;stroke:#3a2c8e;stroke-width:5.6;stroke-dasharray:none;stroke-opacity:1"
     d="m 193.26197,292.68155 c 5.30478,8.28469 18.56675,20.71174 31.82872,20.71174 23.87155,0 34.48113,-16.56938 34.48113,-37.28112 0,-20.7117 -10.60958,-39.3522 -34.48113,-39.3522 -13.26197,0 -21.21915,10.35587 -29.17632,16.56932 -2.6524,2.07118 -5.3048,0 -2.6524,-2.07115 7.95718,-6.21348 21.21915,-22.78286 21.21915,-37.28106 0,-16.56937 -13.26197,-37.28108 -34.48112,-37.28108 -21.21915,0 -34.48112,20.71171 -34.48112,37.28108 0,14.4982 13.26197,31.06758 21.21915,37.28106 2.65239,2.07115 0,4.14233 -2.6524,2.07115 -7.95718,-6.21345 -15.91436,-16.56932 -29.17633,-16.56932 -23.87155,0 -34.48113,18.6405 -34.48113,39.3522 0,20.71174 10.60958,37.28112 34.48113,37.28112 13.26197,0 26.52394,-12.42705 31.82873,-20.71174 2.65239,-2.07115 2.65239,0 2.65239,2.07118 -2.65239,16.56938 -2.65239,20.71171 -5.30479,33.13876 -2.65239,12.42702 -10.60957,35.2099 -10.60957,35.2099 13.26197,-4.14233 39.78591,-4.14233 53.04788,0 0,0 -7.95719,-22.78288 -10.60957,-35.2099 -2.6524,-12.42705 -2.6524,-16.56938 -5.3048,-33.13876 0,-2.07118 0,-4.14233 2.6524,-2.07118 z"
     id="path29" />
</svg>
